<svg xmlns="http://www.w3.org/2000/svg" viewBox="0 0 128 128" fill="currentColor" stroke="none">
  <!-- a game controller -->
  <path d="M41 38h46c14 0 25 9 28 23l6 30c2 11-6 21-17 21-7 0-13-4-17-10l-6-9a8 8 0 0 0-7-4H54a8 8 0 0 0-7 4l-6 9c-4 6-10 10-17 10-11 0-19-10-17-21l6-30c3-14 14-23 28-23z"
        fill="none" stroke="currentColor" stroke-width="7" stroke-linejoin="round"/>
  <!-- d-pad -->
  <rect x="34" y="64" width="22" height="7" rx="2"/>
  <rect x="41.5" y="56.5" width="7" height="22" rx="2"/>
  <!-- buttons -->
  <circle cx="82" cy="60" r="5"/>
  <circle cx="95" cy="70" r="5"/>
  <circle cx="82" cy="80" r="5"/>
  <circle cx="69" cy="70" r="5"/>
</svg>
