<svg xmlns="http://www.w3.org/2000/svg" viewBox="0 0 64 64" role="img" aria-label="SELF">
  <defs>
    <linearGradient id="g" x1="0" y1="0" x2="1" y2="1">
      <stop offset="0" stop-color="#7c9cff"/>
      <stop offset="1" stop-color="#a07cff"/>
    </linearGradient>
    <filter id="glow" x="-40%" y="-40%" width="180%" height="180%">
      <feGaussianBlur stdDeviation="2.2" result="b"/>
      <feMerge><feMergeNode in="b"/><feMergeNode in="SourceGraphic"/></feMerge>
    </filter>
  </defs>
  <rect x="3" y="3" width="58" height="58" rx="15" fill="#0c0e16"/>
  <rect x="3.5" y="3.5" width="57" height="57" rx="14.5" fill="none" stroke="#242838"/>
  <g filter="url(#glow)">
    <!-- a self-enclosing key-loop: identity that refers only to itself -->
    <path d="M40 22a10 10 0 1 0 0 20 10 10 0 0 0 0-20zm0 6a4 4 0 1 1 0 8 4 4 0 0 1 0-8z" fill="url(#g)"/>
    <rect x="20" y="29.6" width="16" height="4.8" rx="2.4" fill="url(#g)"/>
    <rect x="20" y="29.6" width="4.8" height="9" rx="2.2" fill="url(#g)"/>
  </g>
</svg>
