<svg xmlns="http://www.w3.org/2000/svg" width="600" height="600" viewBox="0 0 600 600" role="img" aria-label="Kappa Sessions by Hologram Collective">
  <defs><linearGradient id="g" x1="0" y1="0" x2="1" y2="1"><stop offset="0" stop-color="hsl(293 64% 22%)"/><stop offset="1" stop-color="hsl(335 70% 12%)"/></linearGradient></defs>
  <rect width="600" height="600" fill="url(#g)"/>
  <circle cx="164" cy="286" r="94" fill="none" stroke="hsl(293 80% 72%)" stroke-width="2" opacity="0.23"/>
  <circle cx="286" cy="157" r="162" fill="none" stroke="hsl(293 80% 72%)" stroke-width="2" opacity="0.12"/>
  <circle cx="157" cy="208" r="216" fill="none" stroke="hsl(293 80% 72%)" stroke-width="2" opacity="0.24"/>
  <circle cx="208" cy="238" r="259" fill="none" stroke="hsl(293 80% 72%)" stroke-width="2" opacity="0.23"/>
  <circle cx="238" cy="287" r="314" fill="none" stroke="hsl(293 80% 72%)" stroke-width="2" opacity="0.23"/>
  <rect x="36" y="192" width="18" height="238" rx="3" fill="hsl(293 80% 72%)" opacity="0.46"/>
  <rect x="69" y="356" width="18" height="74" rx="3" fill="hsl(293 80% 72%)" opacity="0.27"/>
  <rect x="102" y="312" width="18" height="118" rx="3" fill="hsl(293 80% 72%)" opacity="0.28"/>
  <rect x="135" y="381" width="18" height="49" rx="3" fill="hsl(293 80% 72%)" opacity="0.32"/>
  <rect x="168" y="312" width="18" height="118" rx="3" fill="hsl(293 80% 72%)" opacity="0.34"/>
  <rect x="201" y="205" width="18" height="225" rx="3" fill="hsl(293 80% 72%)" opacity="0.25"/>
  <rect x="234" y="337" width="18" height="93" rx="3" fill="hsl(293 80% 72%)" opacity="0.46"/>
  <rect x="267" y="193" width="18" height="237" rx="3" fill="hsl(293 80% 72%)" opacity="0.46"/>
  <rect x="300" y="205" width="18" height="225" rx="3" fill="hsl(293 80% 72%)" opacity="0.35"/>
  <rect x="333" y="228" width="18" height="202" rx="3" fill="hsl(293 80% 72%)" opacity="0.47"/>
  <rect x="366" y="325" width="18" height="105" rx="3" fill="hsl(293 80% 72%)" opacity="0.36"/>
  <rect x="399" y="391" width="18" height="39" rx="3" fill="hsl(293 80% 72%)" opacity="0.36"/>
  <rect x="432" y="234" width="18" height="196" rx="3" fill="hsl(293 80% 72%)" opacity="0.46"/>
  <rect x="465" y="282" width="18" height="148" rx="3" fill="hsl(293 80% 72%)" opacity="0.44"/>
  <rect x="498" y="262" width="18" height="168" rx="3" fill="hsl(293 80% 72%)" opacity="0.20"/>
  <rect x="531" y="284" width="18" height="146" rx="3" fill="hsl(293 80% 72%)" opacity="0.33"/>
  <text x="40" y="500" font-family="system-ui, sans-serif" font-size="40" font-weight="800" fill="#fff">Kappa Sessions</text>
  <text x="40" y="540" font-family="ui-monospace, monospace" font-size="22" fill="hsl(293 80% 72%)">Hologram Collective</text>
  <text x="40" y="572" font-family="ui-monospace, monospace" font-size="16" fill="#ffffffaa">Chiptune · Hologram OS</text>
</svg>
