<svg xmlns="http://www.w3.org/2000/svg" width="600" height="600" viewBox="0 0 600 600" role="img" aria-label="Law L5 by The Content Address">
  <defs><linearGradient id="g" x1="0" y1="0" x2="1" y2="1"><stop offset="0" stop-color="hsl(110 64% 22%)"/><stop offset="1" stop-color="hsl(173 70% 12%)"/></linearGradient></defs>
  <rect width="600" height="600" fill="url(#g)"/>
  <circle cx="226" cy="244" r="93" fill="none" stroke="hsl(110 80% 72%)" stroke-width="2" opacity="0.21"/>
  <circle cx="244" cy="183" r="152" fill="none" stroke="hsl(110 80% 72%)" stroke-width="2" opacity="0.14"/>
  <circle cx="183" cy="182" r="198" fill="none" stroke="hsl(110 80% 72%)" stroke-width="2" opacity="0.08"/>
  <circle cx="182" cy="156" r="261" fill="none" stroke="hsl(110 80% 72%)" stroke-width="2" opacity="0.15"/>
  <circle cx="156" cy="129" r="312" fill="none" stroke="hsl(110 80% 72%)" stroke-width="2" opacity="0.24"/>
  <rect x="36" y="322" width="18" height="108" rx="3" fill="hsl(110 80% 72%)" opacity="0.36"/>
  <rect x="69" y="294" width="18" height="136" rx="3" fill="hsl(110 80% 72%)" opacity="0.22"/>
  <rect x="102" y="338" width="18" height="92" rx="3" fill="hsl(110 80% 72%)" opacity="0.39"/>
  <rect x="135" y="357" width="18" height="73" rx="3" fill="hsl(110 80% 72%)" opacity="0.34"/>
  <rect x="168" y="341" width="18" height="89" rx="3" fill="hsl(110 80% 72%)" opacity="0.22"/>
  <rect x="201" y="280" width="18" height="150" rx="3" fill="hsl(110 80% 72%)" opacity="0.21"/>
  <rect x="234" y="218" width="18" height="212" rx="3" fill="hsl(110 80% 72%)" opacity="0.20"/>
  <rect x="267" y="266" width="18" height="164" rx="3" fill="hsl(110 80% 72%)" opacity="0.24"/>
  <rect x="300" y="298" width="18" height="132" rx="3" fill="hsl(110 80% 72%)" opacity="0.27"/>
  <rect x="333" y="268" width="18" height="162" rx="3" fill="hsl(110 80% 72%)" opacity="0.31"/>
  <rect x="366" y="389" width="18" height="41" rx="3" fill="hsl(110 80% 72%)" opacity="0.18"/>
  <rect x="399" y="306" width="18" height="124" rx="3" fill="hsl(110 80% 72%)" opacity="0.27"/>
  <rect x="432" y="276" width="18" height="154" rx="3" fill="hsl(110 80% 72%)" opacity="0.47"/>
  <rect x="465" y="364" width="18" height="66" rx="3" fill="hsl(110 80% 72%)" opacity="0.46"/>
  <rect x="498" y="310" width="18" height="120" rx="3" fill="hsl(110 80% 72%)" opacity="0.35"/>
  <rect x="531" y="372" width="18" height="58" rx="3" fill="hsl(110 80% 72%)" opacity="0.18"/>
  <text x="40" y="500" font-family="system-ui, sans-serif" font-size="40" font-weight="800" fill="#fff">Law L5</text>
  <text x="40" y="540" font-family="ui-monospace, monospace" font-size="22" fill="hsl(110 80% 72%)">The Content Address</text>
  <text x="40" y="572" font-family="ui-monospace, monospace" font-size="16" fill="#ffffffaa">Synthwave · Hologram OS</text>
</svg>
