<svg xmlns="http://www.w3.org/2000/svg" width="600" height="600" viewBox="0 0 600 600" role="img" aria-label="Verifiable Dawn by Merkle Forest">
  <defs><linearGradient id="g" x1="0" y1="0" x2="1" y2="1"><stop offset="0" stop-color="hsl(120 64% 22%)"/><stop offset="1" stop-color="hsl(181 70% 12%)"/></linearGradient></defs>
  <rect width="600" height="600" fill="url(#g)"/>
  <circle cx="248" cy="300" r="98" fill="none" stroke="hsl(120 80% 72%)" stroke-width="2" opacity="0.17"/>
  <circle cx="300" cy="211" r="150" fill="none" stroke="hsl(120 80% 72%)" stroke-width="2" opacity="0.05"/>
  <circle cx="211" cy="167" r="206" fill="none" stroke="hsl(120 80% 72%)" stroke-width="2" opacity="0.12"/>
  <circle cx="167" cy="332" r="265" fill="none" stroke="hsl(120 80% 72%)" stroke-width="2" opacity="0.08"/>
  <circle cx="332" cy="280" r="321" fill="none" stroke="hsl(120 80% 72%)" stroke-width="2" opacity="0.19"/>
  <rect x="36" y="315" width="18" height="115" rx="3" fill="hsl(120 80% 72%)" opacity="0.43"/>
  <rect x="69" y="272" width="18" height="158" rx="3" fill="hsl(120 80% 72%)" opacity="0.42"/>
  <rect x="102" y="353" width="18" height="77" rx="3" fill="hsl(120 80% 72%)" opacity="0.32"/>
  <rect x="135" y="393" width="18" height="37" rx="3" fill="hsl(120 80% 72%)" opacity="0.26"/>
  <rect x="168" y="335" width="18" height="95" rx="3" fill="hsl(120 80% 72%)" opacity="0.18"/>
  <rect x="201" y="313" width="18" height="117" rx="3" fill="hsl(120 80% 72%)" opacity="0.19"/>
  <rect x="234" y="335" width="18" height="95" rx="3" fill="hsl(120 80% 72%)" opacity="0.35"/>
  <rect x="267" y="287" width="18" height="143" rx="3" fill="hsl(120 80% 72%)" opacity="0.20"/>
  <rect x="300" y="373" width="18" height="57" rx="3" fill="hsl(120 80% 72%)" opacity="0.28"/>
  <rect x="333" y="191" width="18" height="239" rx="3" fill="hsl(120 80% 72%)" opacity="0.25"/>
  <rect x="366" y="287" width="18" height="143" rx="3" fill="hsl(120 80% 72%)" opacity="0.41"/>
  <rect x="399" y="316" width="18" height="114" rx="3" fill="hsl(120 80% 72%)" opacity="0.32"/>
  <rect x="432" y="220" width="18" height="210" rx="3" fill="hsl(120 80% 72%)" opacity="0.23"/>
  <rect x="465" y="188" width="18" height="242" rx="3" fill="hsl(120 80% 72%)" opacity="0.20"/>
  <rect x="498" y="317" width="18" height="113" rx="3" fill="hsl(120 80% 72%)" opacity="0.30"/>
  <rect x="531" y="308" width="18" height="122" rx="3" fill="hsl(120 80% 72%)" opacity="0.45"/>
  <text x="40" y="500" font-family="system-ui, sans-serif" font-size="40" font-weight="800" fill="#fff">Verifiable Dawn</text>
  <text x="40" y="540" font-family="ui-monospace, monospace" font-size="22" fill="hsl(120 80% 72%)">Merkle Forest</text>
  <text x="40" y="572" font-family="ui-monospace, monospace" font-size="16" fill="#ffffffaa">Ambient · Hologram OS</text>
</svg>
