<svg xmlns="http://www.w3.org/2000/svg" viewBox="0 0 64 64" role="img" aria-label="Holo Messenger">
  <defs>
    <linearGradient id="g" x1="0" y1="0" x2="1" y2="1">
      <stop offset="0" stop-color="#00a884"/>
      <stop offset="1" stop-color="#008f72"/>
    </linearGradient>
  </defs>
  <rect width="64" height="64" rx="15" fill="url(#g)"/>
  <path fill="#fff" d="M32 14c-10.5 0-19 6.9-19 15.4 0 4.7 2.6 8.9 6.7 11.7-.3 2.2-1.3 4.6-3.1 6.6-.5.6-.1 1.5.7 1.4 3.9-.5 7-2 9.2-3.6 1.8.4 3.6.6 5.5.6 10.5 0 19-6.9 19-15.4S42.5 14 32 14z"/>
  <g fill="#00a884">
    <circle cx="24" cy="29.4" r="2.5"/>
    <circle cx="32" cy="29.4" r="2.5"/>
    <circle cx="40" cy="29.4" r="2.5"/>
  </g>
</svg>
